<svg xmlns="http://www.w3.org/2000/svg" xmlns:xlink="http://www.w3.org/1999/xlink" width="40" zoomAndPan="magnify" viewBox="0 0 30 30.000001" height="40" preserveAspectRatio="xMidYMid meet" version="1.0"><defs><g/><clipPath id="id1"><path d="M 0.484375 0 L 29.515625 0 L 29.515625 29.03125 L 0.484375 29.03125 Z M 0.484375 0 " clip-rule="nonzero"/></clipPath></defs><g clip-path="url(#id1)"><path fill="#ffffff" d="M 0.484375 0 L 29.515625 0 L 29.515625 36.289062 L 0.484375 36.289062 Z M 0.484375 0 " fill-opacity="1" fill-rule="nonzero"/><path fill="#ffffff" d="M 0.484375 0 L 29.515625 0 L 29.515625 29.03125 L 0.484375 29.03125 Z M 0.484375 0 " fill-opacity="1" fill-rule="nonzero"/><path fill="#ffffff" d="M 0.484375 0 L 29.515625 0 L 29.515625 29.03125 L 0.484375 29.03125 Z M 0.484375 0 " fill-opacity="1" fill-rule="nonzero"/><path fill="#ffffff" d="M 0.484375 0 L 29.515625 0 L 29.515625 29.03125 L 0.484375 29.03125 Z M 0.484375 0 " fill-opacity="1" fill-rule="nonzero"/></g><path fill="#000000" d="M 14.992188 22.070312 C 12.847656 22.070312 10.828125 21.234375 9.316406 19.71875 C 7.796875 18.203125 6.960938 16.183594 6.960938 14.039062 C 6.960938 11.894531 7.796875 9.875 9.316406 8.359375 C 10.828125 6.839844 12.847656 6.007812 14.992188 6.007812 C 17.136719 6.007812 19.15625 6.839844 20.671875 8.359375 C 22.191406 9.878906 23.027344 11.894531 23.027344 14.039062 C 23.027344 16.183594 22.191406 18.203125 20.671875 19.71875 C 19.15625 21.234375 17.136719 22.070312 14.992188 22.070312 Z M 14.992188 6.488281 C 12.976562 6.488281 11.082031 7.273438 9.65625 8.699219 C 8.230469 10.125 7.441406 12.023438 7.441406 14.039062 C 7.441406 16.054688 8.230469 17.953125 9.65625 19.375 C 11.082031 20.800781 12.976562 21.589844 14.992188 21.589844 C 17.007812 21.589844 18.90625 20.800781 20.332031 19.375 C 21.757812 17.953125 22.542969 16.054688 22.542969 14.039062 C 22.542969 12.023438 21.757812 10.125 20.332031 8.699219 C 18.90625 7.273438 17.007812 6.488281 14.992188 6.488281 Z M 14.992188 6.488281 " fill-opacity="1" fill-rule="nonzero"/><g fill="#000000" fill-opacity="1"><g transform="translate(10.45155, 19.015739)"><g><path d="M 3.625 -0.140625 L 3.796875 -0.140625 L 3.796875 0 L 0.8125 0 L 0.8125 -0.140625 L 1 -0.140625 C 1.226562 -0.140625 1.425781 -0.222656 1.59375 -0.390625 C 1.757812 -0.554688 1.847656 -0.757812 1.859375 -1 L 1.859375 -8.546875 C 1.847656 -8.785156 1.757812 -8.984375 1.59375 -9.140625 C 1.425781 -9.304688 1.226562 -9.390625 1 -9.390625 L 0.8125 -9.390625 L 0.8125 -9.53125 L 3.796875 -9.53125 L 3.796875 -9.390625 L 3.625 -9.390625 C 3.382812 -9.390625 3.179688 -9.304688 3.015625 -9.140625 C 2.847656 -8.984375 2.757812 -8.785156 2.75 -8.546875 L 2.75 -1 C 2.75 -0.757812 2.832031 -0.554688 3 -0.390625 C 3.175781 -0.222656 3.382812 -0.140625 3.625 -0.140625 Z M 13.046875 2.046875 L 13.046875 2.171875 C 12.703125 2.253906 12.359375 2.296875 12.015625 2.296875 C 10.523438 2.296875 9.082031 1.550781 7.6875 0.0625 L 3.1875 -4.734375 L 6.390625 -8.765625 C 6.460938 -8.859375 6.5 -8.941406 6.5 -9.015625 C 6.5 -9.085938 6.488281 -9.148438 6.46875 -9.203125 C 6.394531 -9.335938 6.257812 -9.40625 6.0625 -9.40625 L 5.9375 -9.40625 L 5.9375 -9.53125 L 8.8125 -9.53125 L 8.8125 -9.40625 L 8.75 -9.40625 C 8.15625 -9.40625 7.664062 -9.191406 7.28125 -8.765625 L 4.109375 -5.109375 L 8.734375 -0.15625 C 9.335938 0.476562 10.007812 1.003906 10.75 1.421875 C 11.5 1.835938 12.265625 2.046875 13.046875 2.046875 Z M 13.046875 2.046875 "/></g></g></g></svg>